<?xml version="1.0" encoding="UTF-8" standalone="no"?>
<!-- Created with Inkscape (http://www.inkscape.org/) -->
<svg xmlns:dc="http://purl.org/dc/elements/1.1/" xmlns:cc="http://creativecommons.org/ns#" xmlns:rdf="http://www.w3.org/1999/02/22-rdf-syntax-ns#" xmlns:svg="http://www.w3.org/2000/svg" xmlns="http://www.w3.org/2000/svg" xmlns:sodipodi="http://sodipodi.sourceforge.net/DTD/sodipodi-0.dtd" xmlns:inkscape="http://www.inkscape.org/namespaces/inkscape" width="201.92" height="229.07001" id="svg2" sodipodi:version="0.32" inkscape:version="0.46" version="1.0" sodipodi:docname="Staccato E.svg" inkscape:output_extension="org.inkscape.output.svg.inkscape">
  <defs id="defs4">
    <inkscape:perspective sodipodi:type="inkscape:persp3d" inkscape:vp_x="0 : 526.18109 : 1" inkscape:vp_y="0 : 1000 : 0" inkscape:vp_z="744.09448 : 526.18109 : 1" inkscape:persp3d-origin="372.04724 : 350.78739 : 1" id="perspective10"/>
    <inkscape:perspective id="perspective2390" inkscape:persp3d-origin="372.04724 : 350.78739 : 1" inkscape:vp_z="744.09448 : 526.18109 : 1" inkscape:vp_y="0 : 1000 : 0" inkscape:vp_x="0 : 526.18109 : 1" sodipodi:type="inkscape:persp3d"/>
    <clipPath clipPathUnits="userSpaceOnUse" id="clipPath2400">
      <path style="fill:none;fill-rule:evenodd;stroke:#000000;stroke-width:1px;stroke-linecap:butt;stroke-linejoin:miter;stroke-opacity:1" d="M 188.70064,183.71582 L 190.82196,395.14074 L 434.06669,392.31232 L 423.46009,173.10921 L 188.70064,183.71582 z" id="path2402"/>
    </clipPath>
    <inkscape:perspective id="perspective2413" inkscape:persp3d-origin="372.04724 : 350.78739 : 1" inkscape:vp_z="744.09448 : 526.18109 : 1" inkscape:vp_y="0 : 1000 : 0" inkscape:vp_x="0 : 526.18109 : 1" sodipodi:type="inkscape:persp3d"/>
  </defs>
  <sodipodi:namedview id="base" pagecolor="#ffffff" bordercolor="#666666" borderopacity="1.0" inkscape:pageopacity="0.0" inkscape:pageshadow="2" inkscape:zoom="1" inkscape:cx="119.80515" inkscape:cy="70" inkscape:document-units="px" inkscape:current-layer="layer1" showgrid="false" inkscape:window-width="1280" inkscape:window-height="974" inkscape:window-x="-8" inkscape:window-y="-8"/>
  <metadata id="metadata7">
    <rdf:RDF>
      <cc:Work rdf:about="">
        <dc:format>image/svg+xml</dc:format>
        <dc:type rdf:resource="http://purl.org/dc/dcmitype/StillImage"/>
      </cc:Work>
    </rdf:RDF>
  </metadata>
  <g inkscape:label="Ebene 1" inkscape:groupmode="layer" id="layer1" transform="translate(-201.42856,-193.6479)">
    <path style="fill:#000000" d="M 281.9813,419.81838 C 279.24023,418.46764 277.62335,415.91221 277.38776,412.55846 C 277.20706,409.98604 277.35491,409.42763 278.70847,407.57034 C 280.75739,404.7589 283.31698,403.58962 286.79162,403.87777 C 291.59603,404.27619 294.70145,407.61344 294.70145,412.3781 C 294.70145,418.5014 287.66311,422.61827 281.9813,419.81838 z M 269.25324,386.83481 C 263.44611,385.68591 258.6652,382.01983 257.38,377.73023 C 256.65646,375.31525 256.59864,371.32885 257.25402,369.04367 L 257.73074,367.38147 L 229.57965,367.38147 L 201.42856,367.38147 L 201.42856,365.58776 L 201.42856,363.79405 L 230.56257,363.79405 L 259.69657,363.79405 L 260.63504,361.71289 C 261.7772,359.18004 268.83464,352.4157 272.81105,350.04255 C 280.45132,345.48278 288.19911,343.60975 298.27705,343.88613 C 304.27686,344.05066 304.96172,344.17535 307.91836,345.64145 L 311.10108,347.21966 L 311.10108,336.0323 L 311.10108,324.84493 L 256.26482,324.84493 L 201.42856,324.84493 L 201.42856,323.05122 L 201.42856,321.25751 L 256.26482,321.25751 L 311.10108,321.25751 L 311.10108,301.78295 L 311.10108,282.30839 L 256.26482,282.30839 L 201.42856,282.30839 L 201.42856,280.51468 L 201.42856,278.72097 L 256.26482,278.72097 L 311.10108,278.72097 L 311.10108,259.24642 L 311.10108,239.77186 L 256.26482,239.77186 L 201.42856,239.77186 L 201.42856,237.97815 L 201.42856,236.18444 L 256.26482,236.18444 L 311.10108,236.18444 L 311.10108,226.95965 L 311.10108,217.73485 L 313.66352,217.73485 L 316.22596,217.73485 L 316.22596,226.95965 L 316.22596,236.18444 L 359.78748,236.18444 L 403.34899,236.18444 L 403.34899,237.97815 L 403.34899,239.77186 L 359.78748,239.77186 L 316.22596,239.77186 L 316.22596,259.24642 L 316.22596,278.72097 L 359.78748,278.72097 L 403.34899,278.72097 L 403.34899,280.51468 L 403.34899,282.30839 L 359.78748,282.30839 L 316.22596,282.30839 L 316.22596,301.78295 L 316.22596,321.25751 L 359.78748,321.25751 L 403.34899,321.25751 L 403.34899,323.05122 L 403.34899,324.84493 L 359.78748,324.84493 L 316.22596,324.84493 L 316.22596,344.31949 L 316.22596,363.79405 L 359.78748,363.79405 L 403.34899,363.79405 L 403.34899,365.58776 L 403.34899,367.38147 L 359.14687,367.39525 L 314.94474,367.40904 L 313.66352,369.4989 C 312.44962,371.47893 308.27113,375.44955 303.60417,379.0578 C 300.32055,381.59653 293.41475,384.67675 287.84527,386.08682 C 283.82724,387.10408 281.60685,387.35693 277.08301,387.31236 C 273.94813,387.28148 270.42474,387.06658 269.25324,386.83481 z M 201.42856,195.44161 L 201.42856,193.6479 L 302.38878,193.6479 L 403.34899,193.6479 L 403.34899,195.44161 L 403.34899,197.23532 L 302.38878,197.23532 L 201.42856,197.23532 L 201.42856,195.44161 z" id="path2396" clip-path="url(#clipPath2400)"/>
    <path sodipodi:type="arc" style="fill:#000000;fill-rule:evenodd;stroke:#000000;stroke-width:1px;stroke-linecap:butt;stroke-linejoin:miter;stroke-opacity:1" id="path2404" sodipodi:cx="82.377937" sodipodi:cy="214.22076" sodipodi:rx="10.253048" sodipodi:ry="10.606602" d="M 92.630985,214.22076 A 10.253048,10.606602 0 1 1 72.124889,214.22076 A 10.253048,10.606602 0 1 1 92.630985,214.22076 z" transform="matrix(0.6980222,0,0,0.6747548,229.05181,260.92878)"/>
  </g>
</svg>